<svg xmlns="http://www.w3.org/2000/svg" xmlns:xlink="http://www.w3.org/1999/xlink" width="500" zoomAndPan="magnify" viewBox="0 0 375 112.499997" height="150" preserveAspectRatio="xMidYMid meet" version="1.0"><defs><g/><clipPath id="feb8bf0c45"><path d="M 54 5.5 L 106.140625 5.5 L 106.140625 86 L 54 86 Z M 54 5.5 " clip-rule="nonzero"/></clipPath><clipPath id="e60eb8b619"><path d="M 3.847656 29 L 55 29 L 55 106.304688 L 3.847656 106.304688 Z M 3.847656 29 " clip-rule="nonzero"/></clipPath></defs><g clip-path="url(#feb8bf0c45)"><path fill="currentColor" d="M 54.984375 5.546875 L 55.839844 5.539062 L 56.269531 5.535156 L 56.699219 5.542969 L 57.554688 5.558594 L 58.410156 5.597656 L 58.839844 5.617188 L 59.265625 5.648438 L 60.121094 5.710938 L 60.976562 5.792969 L 61.402344 5.832031 L 61.832031 5.886719 C 62.113281 5.921875 62.398438 5.953125 62.683594 5.992188 L 63.53125 6.117188 C 63.671875 6.140625 63.816406 6.160156 63.957031 6.183594 L 64.378906 6.257812 L 64.804688 6.332031 C 64.945312 6.359375 65.085938 6.378906 65.226562 6.410156 C 65.789062 6.523438 66.351562 6.628906 66.910156 6.761719 L 67.332031 6.859375 L 67.539062 6.902344 L 67.75 6.957031 L 68.582031 7.167969 C 73.058594 8.355469 77.289062 10.128906 81.277344 12.492188 C 81.769531 12.792969 82.265625 13.085938 82.75 13.402344 C 83.238281 13.710938 83.710938 14.039062 84.191406 14.363281 C 84.429688 14.523438 84.664062 14.695312 84.898438 14.863281 L 85.25 15.113281 L 85.597656 15.371094 C 85.828125 15.546875 86.0625 15.71875 86.292969 15.894531 L 86.972656 16.429688 C 87.875 17.152344 88.761719 17.902344 89.613281 18.6875 L 89.933594 18.980469 C 90.039062 19.078125 90.140625 19.179688 90.246094 19.28125 L 90.875 19.882812 C 91.28125 20.292969 91.699219 20.699219 92.09375 21.125 C 95.3125 24.511719 98.019531 28.273438 100.203125 32.414062 C 102.375 36.535156 104.035156 40.949219 105.046875 45.523438 L 105.222656 46.382812 L 105.3125 46.816406 L 105.386719 47.246094 L 105.539062 48.113281 L 105.667969 48.980469 C 105.691406 49.125 105.714844 49.269531 105.730469 49.417969 L 105.785156 49.851562 C 105.820312 50.144531 105.859375 50.433594 105.886719 50.726562 L 105.96875 51.601562 C 105.980469 51.746094 105.996094 51.894531 106.007812 52.039062 L 106.035156 52.476562 C 106.050781 52.769531 106.074219 53.0625 106.085938 53.355469 L 106.117188 54.234375 C 106.121094 54.378906 106.128906 54.527344 106.128906 54.671875 L 106.132812 55.113281 C 106.136719 55.40625 106.140625 55.699219 106.136719 55.992188 C 106.128906 57.164062 106.070312 58.335938 105.976562 59.5 C 105.878906 60.667969 105.742188 61.832031 105.558594 62.988281 C 105.378906 64.144531 105.15625 65.292969 104.890625 66.429688 C 104.621094 67.570312 104.320312 68.699219 103.972656 69.808594 L 103.703125 70.644531 C 103.660156 70.78125 103.609375 70.917969 103.5625 71.058594 L 103.417969 71.472656 L 103.347656 71.679688 L 103.269531 71.882812 L 103.121094 72.292969 C 103.019531 72.566406 102.914062 72.835938 102.804688 73.105469 C 101.953125 75.269531 100.941406 77.355469 99.773438 79.363281 C 99.1875 80.363281 98.570312 81.339844 97.914062 82.289062 C 97.257812 83.234375 96.566406 84.15625 95.835938 85.042969 L 95.648438 84.910156 C 96.234375 83.929688 96.800781 82.9375 97.335938 81.929688 C 97.867188 80.925781 98.371094 79.90625 98.84375 78.878906 C 99.789062 76.824219 100.601562 74.714844 101.285156 72.558594 C 101.367188 72.289062 101.453125 72.019531 101.53125 71.75 L 101.652344 71.34375 L 101.710938 71.144531 L 101.769531 70.9375 C 101.839844 70.667969 101.921875 70.398438 101.992188 70.125 L 102.203125 69.308594 C 102.46875 68.21875 102.710938 67.121094 102.90625 66.015625 C 103.105469 64.910156 103.277344 63.804688 103.40625 62.691406 L 103.5 61.855469 C 103.527344 61.574219 103.550781 61.296875 103.574219 61.019531 L 103.59375 60.808594 L 103.609375 60.601562 L 103.640625 60.179688 C 103.648438 60.042969 103.660156 59.902344 103.667969 59.761719 L 103.714844 58.925781 C 103.722656 58.785156 103.726562 58.644531 103.730469 58.503906 L 103.746094 58.085938 L 103.753906 57.875 L 103.757812 57.664062 L 103.773438 56.828125 L 103.773438 55.988281 C 103.757812 54.871094 103.730469 53.75 103.652344 52.636719 L 103.625 52.21875 C 103.617188 52.078125 103.605469 51.9375 103.59375 51.800781 L 103.523438 50.964844 C 103.511719 50.824219 103.492188 50.6875 103.476562 50.546875 L 103.429688 50.128906 L 103.386719 49.710938 C 103.371094 49.574219 103.351562 49.4375 103.332031 49.296875 L 103.226562 48.464844 L 103.105469 47.632812 L 103.042969 47.21875 L 102.972656 46.804688 L 102.828125 45.976562 C 102.414062 43.773438 101.855469 41.605469 101.148438 39.476562 C 100.976562 38.941406 100.777344 38.417969 100.589844 37.886719 C 100.492188 37.625 100.390625 37.363281 100.289062 37.101562 L 100.136719 36.710938 L 99.976562 36.320312 C 99.550781 35.28125 99.074219 34.265625 98.578125 33.257812 C 94.554688 25.222656 88.300781 18.304688 80.679688 13.472656 C 78.769531 12.261719 76.785156 11.183594 74.730469 10.246094 L 74.34375 10.070312 C 74.21875 10.011719 74.085938 9.957031 73.957031 9.902344 L 73.179688 9.566406 L 72.390625 9.25 L 72 9.09375 L 71.601562 8.945312 C 71.335938 8.847656 71.074219 8.746094 70.804688 8.652344 L 70.003906 8.375 C 69.738281 8.28125 69.46875 8.199219 69.199219 8.113281 L 68.792969 7.984375 L 68.589844 7.921875 C 68.523438 7.898438 68.453125 7.878906 68.386719 7.859375 L 67.574219 7.625 L 67.367188 7.570312 L 67.164062 7.515625 L 66.753906 7.40625 C 66.207031 7.253906 65.652344 7.132812 65.105469 7 C 64.96875 6.964844 64.832031 6.941406 64.691406 6.910156 L 64.273438 6.824219 L 63.859375 6.738281 C 63.71875 6.707031 63.578125 6.683594 63.441406 6.65625 L 62.605469 6.503906 C 62.324219 6.457031 62.042969 6.414062 61.765625 6.367188 L 61.34375 6.300781 L 60.921875 6.242188 L 60.082031 6.132812 L 59.234375 6.039062 L 58.808594 5.996094 L 58.386719 5.960938 L 57.539062 5.890625 L 56.261719 5.820312 L 55.835938 5.808594 L 54.984375 5.78125 Z M 54.984375 5.546875 " fill-opacity="1" fill-rule="nonzero"/></g><g clip-path="url(#e60eb8b619)"><path fill="currentColor" d="M 54.984375 106.257812 L 54.152344 106.265625 L 53.734375 106.269531 C 53.597656 106.269531 53.453125 106.265625 53.316406 106.261719 L 52.480469 106.246094 C 52.203125 106.238281 51.925781 106.222656 51.648438 106.210938 C 51.089844 106.191406 50.535156 106.144531 49.980469 106.105469 C 49.839844 106.097656 49.703125 106.082031 49.5625 106.070312 L 49.144531 106.03125 C 48.867188 106.003906 48.589844 105.980469 48.316406 105.945312 L 47.484375 105.839844 C 47.347656 105.828125 47.210938 105.804688 47.070312 105.785156 L 46.660156 105.722656 C 46.105469 105.644531 45.558594 105.542969 45.007812 105.445312 C 43.910156 105.238281 42.816406 105.007812 41.734375 104.726562 C 41.191406 104.59375 40.65625 104.433594 40.117188 104.285156 C 39.980469 104.25 39.847656 104.203125 39.714844 104.164062 L 39.3125 104.039062 L 38.914062 103.917969 C 38.777344 103.875 38.648438 103.828125 38.515625 103.785156 L 37.71875 103.515625 C 37.453125 103.425781 37.191406 103.328125 36.929688 103.230469 L 36.535156 103.085938 C 36.402344 103.039062 36.273438 102.984375 36.140625 102.933594 L 35.359375 102.625 C 33.277344 101.777344 31.261719 100.792969 29.3125 99.675781 C 21.503906 95.210938 14.90625 88.570312 10.449219 80.660156 L 10.238281 80.289062 L 10.039062 79.917969 L 9.632812 79.167969 L 9.246094 78.410156 C 9.183594 78.28125 9.117188 78.15625 9.054688 78.027344 L 8.871094 77.644531 C 8.367188 76.625 7.914062 75.582031 7.480469 74.53125 L 7.164062 73.738281 L 7.085938 73.539062 L 6.863281 72.941406 L 6.714844 72.539062 L 6.632812 72.339844 L 6.566406 72.140625 L 6.289062 71.328125 C 5.933594 70.246094 5.601562 69.15625 5.320312 68.050781 C 4.75 65.835938 4.34375 63.589844 4.101562 61.316406 C 3.988281 60.179688 3.902344 59.039062 3.875 57.898438 L 3.863281 57.46875 L 3.855469 57.257812 C 3.855469 57.183594 3.855469 57.113281 3.855469 57.042969 L 3.851562 56.1875 C 3.847656 55.902344 3.859375 55.617188 3.867188 55.332031 L 3.894531 54.476562 C 4.085938 49.894531 4.914062 45.4375 6.382812 41.09375 C 7.109375 38.949219 7.992188 36.867188 9.027344 34.855469 L 9.425781 34.109375 L 9.625 33.734375 C 9.691406 33.613281 9.753906 33.488281 9.828125 33.367188 L 10.253906 32.640625 C 10.394531 32.398438 10.535156 32.152344 10.683594 31.914062 C 10.984375 31.441406 11.289062 30.96875 11.59375 30.5 C 11.914062 30.039062 12.234375 29.578125 12.5625 29.125 L 12.753906 29.246094 C 12.507812 29.746094 12.253906 30.242188 12 30.734375 L 11.28125 32.238281 L 10.605469 33.757812 C 10.550781 33.882812 10.5 34.011719 10.445312 34.140625 L 9.976562 35.289062 C 9.167969 37.339844 8.484375 39.429688 7.925781 41.566406 C 6.816406 45.816406 6.234375 50.140625 6.179688 54.539062 L 6.179688 55.355469 C 6.179688 55.628906 6.171875 55.898438 6.183594 56.171875 L 6.199219 56.988281 C 6.199219 57.058594 6.199219 57.128906 6.207031 57.195312 L 6.214844 57.398438 L 6.234375 57.804688 L 6.253906 58.214844 L 6.261719 58.417969 L 6.277344 58.621094 L 6.332031 59.4375 C 6.339844 59.574219 6.347656 59.710938 6.363281 59.84375 L 6.398438 60.25 L 6.433594 60.660156 C 6.445312 60.792969 6.457031 60.929688 6.472656 61.066406 C 6.703125 63.230469 7.039062 65.386719 7.523438 67.511719 C 7.75 68.578125 8.035156 69.632812 8.335938 70.679688 L 8.574219 71.460938 L 8.632812 71.65625 L 8.695312 71.851562 L 8.824219 72.242188 L 8.953125 72.628906 L 9.015625 72.824219 L 9.085938 73.019531 L 9.359375 73.789062 C 9.746094 74.8125 10.144531 75.828125 10.597656 76.824219 L 10.765625 77.199219 C 10.820312 77.324219 10.882812 77.445312 10.941406 77.570312 L 11.292969 78.3125 L 11.664062 79.042969 L 11.851562 79.40625 L 12.046875 79.769531 L 12.4375 80.488281 L 12.847656 81.203125 C 12.914062 81.320312 12.980469 81.441406 13.050781 81.554688 L 13.265625 81.90625 L 13.476562 82.257812 C 13.546875 82.375 13.617188 82.492188 13.691406 82.609375 C 13.988281 83.066406 14.277344 83.535156 14.585938 83.984375 L 14.816406 84.324219 L 14.929688 84.496094 L 15.050781 84.664062 L 15.523438 85.332031 C 15.601562 85.445312 15.683594 85.554688 15.765625 85.664062 L 16.011719 85.992188 C 16.175781 86.214844 16.335938 86.433594 16.507812 86.648438 L 17.011719 87.296875 C 17.183594 87.507812 17.359375 87.71875 17.53125 87.933594 L 17.792969 88.25 L 18.0625 88.5625 L 18.597656 89.183594 L 19.148438 89.792969 C 19.238281 89.894531 19.328125 90 19.421875 90.097656 L 19.707031 90.394531 C 20.453125 91.199219 21.238281 91.964844 22.039062 92.714844 L 22.644531 93.269531 C 22.742188 93.363281 22.847656 93.453125 22.953125 93.542969 L 23.261719 93.8125 L 23.570312 94.085938 C 23.671875 94.175781 23.78125 94.261719 23.886719 94.351562 L 24.515625 94.878906 C 29.699219 99.113281 35.5 102.164062 41.914062 104.03125 C 42.972656 104.347656 44.042969 104.613281 45.117188 104.855469 C 45.660156 104.96875 46.199219 105.089844 46.742188 105.183594 L 47.148438 105.257812 C 47.285156 105.285156 47.421875 105.3125 47.558594 105.332031 L 48.375 105.460938 C 48.648438 105.507812 48.921875 105.539062 49.195312 105.578125 L 49.605469 105.632812 C 49.746094 105.652344 49.882812 105.671875 50.019531 105.683594 C 50.566406 105.742188 51.117188 105.8125 51.667969 105.851562 C 51.945312 105.875 52.21875 105.898438 52.496094 105.917969 L 53.324219 105.964844 C 53.460938 105.972656 53.597656 105.980469 53.738281 105.988281 L 54.152344 106 L 54.984375 106.027344 Z M 54.984375 106.257812 " fill-opacity="1" fill-rule="nonzero"/></g><g fill="currentColor" fill-opacity="1"><g transform="translate(113.131929, 66.73898)"><g><path d="M 10.015625 -2.140625 C 11.753906 -2.140625 13.070312 -2.535156 13.96875 -3.328125 C 14.875 -4.117188 15.328125 -5.140625 15.328125 -6.390625 C 15.328125 -7.484375 14.976562 -8.367188 14.28125 -9.046875 C 13.59375 -9.722656 12.507812 -10.28125 11.03125 -10.71875 L 7.640625 -11.734375 C 5.972656 -12.222656 4.664062 -12.945312 3.71875 -13.90625 C 2.769531 -14.875 2.296875 -16.175781 2.296875 -17.8125 C 2.296875 -18.800781 2.484375 -19.691406 2.859375 -20.484375 C 3.242188 -21.273438 3.785156 -21.941406 4.484375 -22.484375 C 5.179688 -23.035156 6.015625 -23.457031 6.984375 -23.75 C 7.960938 -24.050781 9.066406 -24.203125 10.296875 -24.203125 C 11.328125 -24.203125 12.289062 -24.117188 13.1875 -23.953125 C 14.09375 -23.785156 14.875 -23.550781 15.53125 -23.25 C 16.195312 -22.957031 16.710938 -22.628906 17.078125 -22.265625 C 17.441406 -21.898438 17.625 -21.519531 17.625 -21.125 C 17.625 -20.757812 17.53125 -20.445312 17.34375 -20.1875 C 17.164062 -19.925781 16.929688 -19.71875 16.640625 -19.5625 C 15.960938 -20.082031 15.082031 -20.535156 14 -20.921875 C 12.925781 -21.316406 11.726562 -21.515625 10.40625 -21.515625 C 8.875 -21.515625 7.671875 -21.1875 6.796875 -20.53125 C 5.929688 -19.882812 5.5 -18.976562 5.5 -17.8125 C 5.5 -16.90625 5.8125 -16.164062 6.4375 -15.59375 C 7.0625 -15.019531 8.097656 -14.523438 9.546875 -14.109375 L 11.921875 -13.40625 C 13.984375 -12.8125 15.601562 -11.972656 16.78125 -10.890625 C 17.96875 -9.816406 18.5625 -8.316406 18.5625 -6.390625 C 18.5625 -4.335938 17.816406 -2.675781 16.328125 -1.40625 C 14.847656 -0.132812 12.742188 0.5 10.015625 0.5 C 8.816406 0.5 7.726562 0.394531 6.75 0.1875 C 5.78125 -0.0078125 4.953125 -0.273438 4.265625 -0.609375 C 3.578125 -0.953125 3.046875 -1.328125 2.671875 -1.734375 C 2.296875 -2.140625 2.109375 -2.535156 2.109375 -2.921875 C 2.109375 -3.367188 2.242188 -3.738281 2.515625 -4.03125 C 2.785156 -4.332031 3.101562 -4.546875 3.46875 -4.671875 C 3.75 -4.390625 4.097656 -4.097656 4.515625 -3.796875 C 4.929688 -3.503906 5.410156 -3.234375 5.953125 -2.984375 C 6.503906 -2.734375 7.117188 -2.53125 7.796875 -2.375 C 8.472656 -2.21875 9.210938 -2.140625 10.015625 -2.140625 Z M 10.015625 -2.140625 "/></g></g></g><g fill="currentColor" fill-opacity="1"><g transform="translate(133.520876, 66.73898)"><g><path d="M 2.921875 -17.9375 C 3.054688 -17.988281 3.257812 -18.046875 3.53125 -18.109375 C 3.800781 -18.171875 4.09375 -18.203125 4.40625 -18.203125 C 5.5 -18.203125 6.046875 -17.722656 6.046875 -16.765625 L 6.046875 -6.75 C 6.046875 -5.050781 6.484375 -3.84375 7.359375 -3.125 C 8.242188 -2.414062 9.46875 -2.0625 11.03125 -2.0625 C 12.070312 -2.0625 12.957031 -2.171875 13.6875 -2.390625 C 14.414062 -2.617188 14.988281 -2.847656 15.40625 -3.078125 L 15.40625 -17.9375 C 15.53125 -17.988281 15.726562 -18.046875 16 -18.109375 C 16.269531 -18.171875 16.550781 -18.203125 16.84375 -18.203125 C 17.957031 -18.203125 18.515625 -17.722656 18.515625 -16.765625 L 18.515625 -3.203125 C 18.515625 -2.648438 18.441406 -2.210938 18.296875 -1.890625 C 18.160156 -1.566406 17.816406 -1.25 17.265625 -0.9375 C 16.671875 -0.59375 15.847656 -0.269531 14.796875 0.03125 C 13.742188 0.34375 12.476562 0.5 11 0.5 C 8.394531 0.5 6.394531 -0.0664062 5 -1.203125 C 3.613281 -2.347656 2.921875 -4.144531 2.921875 -6.59375 Z M 2.921875 -17.9375 "/></g></g></g><g fill="currentColor" fill-opacity="1"><g transform="translate(154.962409, 66.73898)"><g><path d="M 9.359375 -2.03125 C 10.453125 -2.03125 11.351562 -2.140625 12.0625 -2.359375 C 12.78125 -2.578125 13.296875 -2.789062 13.609375 -3 L 13.609375 -8.65625 L 8.765625 -8.140625 C 7.421875 -8.015625 6.421875 -7.710938 5.765625 -7.234375 C 5.117188 -6.753906 4.796875 -6.046875 4.796875 -5.109375 C 4.796875 -4.117188 5.171875 -3.359375 5.921875 -2.828125 C 6.679688 -2.296875 7.828125 -2.03125 9.359375 -2.03125 Z M 9.3125 -18.515625 C 11.570312 -18.515625 13.363281 -18.007812 14.6875 -17 C 16.019531 -15.988281 16.6875 -14.390625 16.6875 -12.203125 L 16.6875 -2.96875 C 16.6875 -2.394531 16.570312 -1.957031 16.34375 -1.65625 C 16.125 -1.351562 15.796875 -1.070312 15.359375 -0.8125 C 14.734375 -0.445312 13.90625 -0.128906 12.875 0.140625 C 11.851562 0.410156 10.679688 0.546875 9.359375 0.546875 C 6.910156 0.546875 5.015625 0.0664062 3.671875 -0.890625 C 2.335938 -1.859375 1.671875 -3.25 1.671875 -5.0625 C 1.671875 -6.78125 2.226562 -8.070312 3.34375 -8.9375 C 4.46875 -9.8125 6.039062 -10.351562 8.0625 -10.5625 L 13.609375 -11.109375 L 13.609375 -12.203125 C 13.609375 -13.503906 13.21875 -14.453125 12.4375 -15.046875 C 11.65625 -15.640625 10.601562 -15.9375 9.28125 -15.9375 C 8.1875 -15.9375 7.15625 -15.78125 6.1875 -15.46875 C 5.226562 -15.164062 4.375 -14.816406 3.625 -14.421875 C 3.414062 -14.609375 3.226562 -14.816406 3.0625 -15.046875 C 2.894531 -15.285156 2.8125 -15.546875 2.8125 -15.828125 C 2.8125 -16.191406 2.898438 -16.488281 3.078125 -16.71875 C 3.265625 -16.957031 3.550781 -17.179688 3.9375 -17.390625 C 4.632812 -17.753906 5.4375 -18.03125 6.34375 -18.21875 C 7.257812 -18.414062 8.25 -18.515625 9.3125 -18.515625 Z M 9.3125 -18.515625 "/></g></g></g><g fill="currentColor" fill-opacity="1"><g transform="translate(174.415721, 66.73898)"><g/></g></g><g fill="currentColor" fill-opacity="1"><g transform="translate(182.212643, 66.73898)"><g><path d="M 5.1875 0 C 4.6875 0 4.273438 -0.15625 3.953125 -0.46875 C 3.628906 -0.78125 3.46875 -1.195312 3.46875 -1.71875 L 3.46875 -23.625 C 3.601562 -23.675781 3.804688 -23.734375 4.078125 -23.796875 C 4.347656 -23.859375 4.640625 -23.890625 4.953125 -23.890625 C 6.097656 -23.890625 6.671875 -23.410156 6.671875 -22.453125 L 6.671875 -2.734375 L 17.859375 -2.734375 C 18.140625 -2.441406 18.28125 -2.007812 18.28125 -1.4375 C 18.28125 -1 18.160156 -0.648438 17.921875 -0.390625 C 17.691406 -0.128906 17.382812 0 17 0 Z M 5.1875 0 "/></g></g></g><g fill="currentColor" fill-opacity="1"><g transform="translate(201.743931, 66.73898)"><g><path d="M 19.640625 -9 C 19.640625 -7.550781 19.429688 -6.238281 19.015625 -5.0625 C 18.609375 -3.894531 18.019531 -2.894531 17.25 -2.0625 C 16.476562 -1.226562 15.546875 -0.59375 14.453125 -0.15625 C 13.367188 0.28125 12.148438 0.5 10.796875 0.5 C 9.441406 0.5 8.21875 0.28125 7.125 -0.15625 C 6.039062 -0.59375 5.109375 -1.226562 4.328125 -2.0625 C 3.546875 -2.894531 2.945312 -3.894531 2.53125 -5.0625 C 2.113281 -6.238281 1.90625 -7.550781 1.90625 -9 C 1.90625 -10.457031 2.117188 -11.769531 2.546875 -12.9375 C 2.984375 -14.113281 3.585938 -15.113281 4.359375 -15.9375 C 5.140625 -16.769531 6.078125 -17.40625 7.171875 -17.84375 C 8.265625 -18.289062 9.472656 -18.515625 10.796875 -18.515625 C 12.117188 -18.515625 13.328125 -18.289062 14.421875 -17.84375 C 15.515625 -17.40625 16.441406 -16.769531 17.203125 -15.9375 C 17.972656 -15.113281 18.570312 -14.113281 19 -12.9375 C 19.425781 -11.769531 19.640625 -10.457031 19.640625 -9 Z M 10.796875 -15.9375 C 9.023438 -15.9375 7.632812 -15.328125 6.625 -14.109375 C 5.613281 -12.890625 5.109375 -11.1875 5.109375 -9 C 5.109375 -6.789062 5.609375 -5.082031 6.609375 -3.875 C 7.609375 -2.664062 9.003906 -2.0625 10.796875 -2.0625 C 12.585938 -2.0625 13.976562 -2.671875 14.96875 -3.890625 C 15.957031 -5.117188 16.453125 -6.820312 16.453125 -9 C 16.453125 -11.1875 15.953125 -12.890625 14.953125 -14.109375 C 13.953125 -15.328125 12.566406 -15.9375 10.796875 -15.9375 Z M 10.796875 -15.9375 "/></g></g></g><g fill="currentColor" fill-opacity="1"><g transform="translate(223.302415, 66.73898)"><g><path d="M 14.96875 -1.875 C 14.53125 -1.507812 13.925781 -1.195312 13.15625 -0.9375 C 12.382812 -0.675781 11.46875 -0.546875 10.40625 -0.546875 C 9.257812 -0.546875 8.179688 -0.707031 7.171875 -1.03125 C 6.160156 -1.351562 5.269531 -1.875 4.5 -2.59375 C 3.738281 -3.3125 3.128906 -4.238281 2.671875 -5.375 C 2.210938 -6.519531 1.984375 -7.910156 1.984375 -9.546875 C 1.984375 -11.023438 2.203125 -12.320312 2.640625 -13.4375 C 3.085938 -14.5625 3.707031 -15.5 4.5 -16.25 C 5.289062 -17.007812 6.234375 -17.578125 7.328125 -17.953125 C 8.421875 -18.328125 9.628906 -18.515625 10.953125 -18.515625 C 12.148438 -18.515625 13.25 -18.363281 14.25 -18.0625 C 15.25 -17.769531 16.085938 -17.398438 16.765625 -16.953125 C 17.148438 -16.691406 17.46875 -16.398438 17.71875 -16.078125 C 17.96875 -15.753906 18.09375 -15.359375 18.09375 -14.890625 L 18.09375 0.78125 C 18.09375 2.082031 17.875 3.179688 17.4375 4.078125 C 17.007812 4.972656 16.410156 5.695312 15.640625 6.25 C 14.878906 6.8125 13.976562 7.222656 12.9375 7.484375 C 11.90625 7.742188 10.789062 7.875 9.59375 7.875 C 8.269531 7.875 7.144531 7.738281 6.21875 7.46875 C 5.289062 7.195312 4.660156 6.957031 4.328125 6.75 C 3.546875 6.300781 3.15625 5.738281 3.15625 5.0625 C 3.15625 4.695312 3.238281 4.390625 3.40625 4.140625 C 3.582031 3.898438 3.796875 3.71875 4.046875 3.59375 C 4.597656 4 5.363281 4.378906 6.34375 4.734375 C 7.332031 5.085938 8.414062 5.265625 9.59375 5.265625 C 11.332031 5.265625 12.660156 4.894531 13.578125 4.15625 C 14.503906 3.414062 14.96875 2.222656 14.96875 0.578125 Z M 10.765625 -3.125 C 11.796875 -3.125 12.644531 -3.285156 13.3125 -3.609375 C 13.976562 -3.929688 14.53125 -4.300781 14.96875 -4.71875 L 14.96875 -14.859375 C 14.53125 -15.140625 13.976562 -15.390625 13.3125 -15.609375 C 12.644531 -15.828125 11.859375 -15.9375 10.953125 -15.9375 C 9.179688 -15.9375 7.769531 -15.40625 6.71875 -14.34375 C 5.664062 -13.28125 5.140625 -11.695312 5.140625 -9.59375 C 5.140625 -8.414062 5.28125 -7.414062 5.5625 -6.59375 C 5.851562 -5.78125 6.253906 -5.113281 6.765625 -4.59375 C 7.273438 -4.082031 7.875 -3.707031 8.5625 -3.46875 C 9.25 -3.238281 9.984375 -3.125 10.765625 -3.125 Z M 10.765625 -3.125 "/></g></g></g><g fill="currentColor" fill-opacity="1"><g transform="translate(244.237143, 66.73898)"><g><path d="M 19.640625 -9 C 19.640625 -7.550781 19.429688 -6.238281 19.015625 -5.0625 C 18.609375 -3.894531 18.019531 -2.894531 17.25 -2.0625 C 16.476562 -1.226562 15.546875 -0.59375 14.453125 -0.15625 C 13.367188 0.28125 12.148438 0.5 10.796875 0.5 C 9.441406 0.5 8.21875 0.28125 7.125 -0.15625 C 6.039062 -0.59375 5.109375 -1.226562 4.328125 -2.0625 C 3.546875 -2.894531 2.945312 -3.894531 2.53125 -5.0625 C 2.113281 -6.238281 1.90625 -7.550781 1.90625 -9 C 1.90625 -10.457031 2.117188 -11.769531 2.546875 -12.9375 C 2.984375 -14.113281 3.585938 -15.113281 4.359375 -15.9375 C 5.140625 -16.769531 6.078125 -17.40625 7.171875 -17.84375 C 8.265625 -18.289062 9.472656 -18.515625 10.796875 -18.515625 C 12.117188 -18.515625 13.328125 -18.289062 14.421875 -17.84375 C 15.515625 -17.40625 16.441406 -16.769531 17.203125 -15.9375 C 17.972656 -15.113281 18.570312 -14.113281 19 -12.9375 C 19.425781 -11.769531 19.640625 -10.457031 19.640625 -9 Z M 10.796875 -15.9375 C 9.023438 -15.9375 7.632812 -15.328125 6.625 -14.109375 C 5.613281 -12.890625 5.109375 -11.1875 5.109375 -9 C 5.109375 -6.789062 5.609375 -5.082031 6.609375 -3.875 C 7.609375 -2.664062 9.003906 -2.0625 10.796875 -2.0625 C 12.585938 -2.0625 13.976562 -2.671875 14.96875 -3.890625 C 15.957031 -5.117188 16.453125 -6.820312 16.453125 -9 C 16.453125 -11.1875 15.953125 -12.890625 14.953125 -14.109375 C 13.953125 -15.328125 12.566406 -15.9375 10.796875 -15.9375 Z M 10.796875 -15.9375 "/></g></g></g><g fill="currentColor" fill-opacity="1"><g transform="translate(265.795628, 66.73898)"><g><path d="M 25.765625 -12.234375 C 25.765625 -13.515625 25.398438 -14.453125 24.671875 -15.046875 C 23.941406 -15.640625 22.96875 -15.9375 21.75 -15.9375 C 20.0625 -15.9375 18.554688 -15.34375 17.234375 -14.15625 C 17.390625 -13.632812 17.46875 -13.070312 17.46875 -12.46875 L 17.46875 -0.078125 C 17.332031 -0.0234375 17.128906 0.03125 16.859375 0.09375 C 16.585938 0.15625 16.304688 0.1875 16.015625 0.1875 C 14.898438 0.1875 14.34375 -0.273438 14.34375 -1.203125 L 14.34375 -12.234375 C 14.34375 -13.515625 13.976562 -14.453125 13.25 -15.046875 C 12.519531 -15.640625 11.535156 -15.9375 10.296875 -15.9375 C 9.460938 -15.9375 8.675781 -15.804688 7.9375 -15.546875 C 7.195312 -15.296875 6.566406 -15 6.046875 -14.65625 L 6.046875 -0.078125 C 5.910156 -0.0234375 5.710938 0.03125 5.453125 0.09375 C 5.191406 0.15625 4.90625 0.1875 4.59375 0.1875 C 3.476562 0.1875 2.921875 -0.273438 2.921875 -1.203125 L 2.921875 -14.5 C 2.921875 -15.019531 3.03125 -15.453125 3.25 -15.796875 C 3.476562 -16.148438 3.863281 -16.507812 4.40625 -16.875 C 5.101562 -17.320312 5.988281 -17.707031 7.0625 -18.03125 C 8.144531 -18.351562 9.234375 -18.515625 10.328125 -18.515625 C 11.597656 -18.515625 12.726562 -18.328125 13.71875 -17.953125 C 14.707031 -17.578125 15.460938 -17.0625 15.984375 -16.40625 C 16.660156 -17.007812 17.503906 -17.507812 18.515625 -17.90625 C 19.523438 -18.3125 20.679688 -18.515625 21.984375 -18.515625 C 24.085938 -18.515625 25.765625 -18.015625 27.015625 -17.015625 C 28.265625 -16.015625 28.890625 -14.472656 28.890625 -12.390625 L 28.890625 -0.078125 C 28.753906 -0.0234375 28.550781 0.03125 28.28125 0.09375 C 28.007812 0.15625 27.726562 0.1875 27.4375 0.1875 C 26.320312 0.1875 25.765625 -0.273438 25.765625 -1.203125 Z M 25.765625 -12.234375 "/></g></g></g><g fill="currentColor" fill-opacity="1"><g transform="translate(297.607062, 66.73898)"><g><path d="M 9.359375 -2.03125 C 10.453125 -2.03125 11.351562 -2.140625 12.0625 -2.359375 C 12.78125 -2.578125 13.296875 -2.789062 13.609375 -3 L 13.609375 -8.65625 L 8.765625 -8.140625 C 7.421875 -8.015625 6.421875 -7.710938 5.765625 -7.234375 C 5.117188 -6.753906 4.796875 -6.046875 4.796875 -5.109375 C 4.796875 -4.117188 5.171875 -3.359375 5.921875 -2.828125 C 6.679688 -2.296875 7.828125 -2.03125 9.359375 -2.03125 Z M 9.3125 -18.515625 C 11.570312 -18.515625 13.363281 -18.007812 14.6875 -17 C 16.019531 -15.988281 16.6875 -14.390625 16.6875 -12.203125 L 16.6875 -2.96875 C 16.6875 -2.394531 16.570312 -1.957031 16.34375 -1.65625 C 16.125 -1.351562 15.796875 -1.070312 15.359375 -0.8125 C 14.734375 -0.445312 13.90625 -0.128906 12.875 0.140625 C 11.851562 0.410156 10.679688 0.546875 9.359375 0.546875 C 6.910156 0.546875 5.015625 0.0664062 3.671875 -0.890625 C 2.335938 -1.859375 1.671875 -3.25 1.671875 -5.0625 C 1.671875 -6.78125 2.226562 -8.070312 3.34375 -8.9375 C 4.46875 -9.8125 6.039062 -10.351562 8.0625 -10.5625 L 13.609375 -11.109375 L 13.609375 -12.203125 C 13.609375 -13.503906 13.21875 -14.453125 12.4375 -15.046875 C 11.65625 -15.640625 10.601562 -15.9375 9.28125 -15.9375 C 8.1875 -15.9375 7.15625 -15.78125 6.1875 -15.46875 C 5.226562 -15.164062 4.375 -14.816406 3.625 -14.421875 C 3.414062 -14.609375 3.226562 -14.816406 3.0625 -15.046875 C 2.894531 -15.285156 2.8125 -15.546875 2.8125 -15.828125 C 2.8125 -16.191406 2.898438 -16.488281 3.078125 -16.71875 C 3.265625 -16.957031 3.550781 -17.179688 3.9375 -17.390625 C 4.632812 -17.753906 5.4375 -18.03125 6.34375 -18.21875 C 7.257812 -18.414062 8.25 -18.515625 9.3125 -18.515625 Z M 9.3125 -18.515625 "/></g></g></g><g fill="currentColor" fill-opacity="1"><g transform="translate(317.060374, 66.73898)"><g><path d="M 6.046875 -0.078125 C 5.910156 -0.0234375 5.710938 0.03125 5.453125 0.09375 C 5.191406 0.15625 4.90625 0.1875 4.59375 0.1875 C 3.476562 0.1875 2.921875 -0.273438 2.921875 -1.203125 L 2.921875 -14.421875 C 2.921875 -15.023438 3.03125 -15.5 3.25 -15.84375 C 3.476562 -16.195312 3.847656 -16.539062 4.359375 -16.875 C 5.035156 -17.320312 5.953125 -17.707031 7.109375 -18.03125 C 8.265625 -18.351562 9.570312 -18.515625 11.03125 -18.515625 C 13.113281 -18.515625 14.15625 -17.992188 14.15625 -16.953125 C 14.15625 -16.691406 14.113281 -16.453125 14.03125 -16.234375 C 13.957031 -16.015625 13.851562 -15.828125 13.71875 -15.671875 C 13.457031 -15.722656 13.117188 -15.773438 12.703125 -15.828125 C 12.285156 -15.878906 11.875 -15.90625 11.46875 -15.90625 C 10.269531 -15.90625 9.210938 -15.78125 8.296875 -15.53125 C 7.390625 -15.289062 6.640625 -15 6.046875 -14.65625 Z M 6.046875 -0.078125 "/></g></g></g><g fill="currentColor" fill-opacity="1"><g transform="translate(331.952498, 66.73898)"><g><path d="M 11.265625 -15.90625 C 10.378906 -15.90625 9.5625 -15.753906 8.8125 -15.453125 C 8.0625 -15.160156 7.410156 -14.71875 6.859375 -14.125 C 6.316406 -13.539062 5.890625 -12.8125 5.578125 -11.9375 C 5.265625 -11.070312 5.109375 -10.082031 5.109375 -8.96875 C 5.109375 -6.726562 5.664062 -5.015625 6.78125 -3.828125 C 7.894531 -2.648438 9.390625 -2.0625 11.265625 -2.0625 C 12.359375 -2.0625 13.269531 -2.210938 14 -2.515625 C 14.726562 -2.816406 15.375 -3.160156 15.9375 -3.546875 C 16.226562 -3.390625 16.460938 -3.191406 16.640625 -2.953125 C 16.828125 -2.722656 16.921875 -2.441406 16.921875 -2.109375 C 16.921875 -1.742188 16.773438 -1.40625 16.484375 -1.09375 C 16.203125 -0.78125 15.804688 -0.503906 15.296875 -0.265625 C 14.796875 -0.0351562 14.195312 0.144531 13.5 0.28125 C 12.8125 0.425781 12.066406 0.5 11.265625 0.5 C 9.910156 0.5 8.660156 0.304688 7.515625 -0.078125 C 6.378906 -0.460938 5.394531 -1.046875 4.5625 -1.828125 C 3.726562 -2.609375 3.078125 -3.585938 2.609375 -4.765625 C 2.140625 -5.953125 1.90625 -7.351562 1.90625 -8.96875 C 1.90625 -10.550781 2.148438 -11.929688 2.640625 -13.109375 C 3.140625 -14.296875 3.804688 -15.289062 4.640625 -16.09375 C 5.472656 -16.90625 6.453125 -17.507812 7.578125 -17.90625 C 8.710938 -18.3125 9.914062 -18.515625 11.1875 -18.515625 C 11.988281 -18.515625 12.734375 -18.441406 13.421875 -18.296875 C 14.117188 -18.160156 14.710938 -17.960938 15.203125 -17.703125 C 15.691406 -17.441406 16.070312 -17.144531 16.34375 -16.8125 C 16.625 -16.488281 16.765625 -16.160156 16.765625 -15.828125 C 16.765625 -15.515625 16.671875 -15.238281 16.484375 -15 C 16.304688 -14.769531 16.070312 -14.59375 15.78125 -14.46875 C 15.21875 -14.851562 14.597656 -15.1875 13.921875 -15.46875 C 13.242188 -15.757812 12.359375 -15.90625 11.265625 -15.90625 Z M 11.265625 -15.90625 "/></g></g></g><g fill="currentColor" fill-opacity="1"><g transform="translate(350.58715, 66.73898)"><g><path d="M 9.359375 -2.03125 C 10.453125 -2.03125 11.351562 -2.140625 12.0625 -2.359375 C 12.78125 -2.578125 13.296875 -2.789062 13.609375 -3 L 13.609375 -8.65625 L 8.765625 -8.140625 C 7.421875 -8.015625 6.421875 -7.710938 5.765625 -7.234375 C 5.117188 -6.753906 4.796875 -6.046875 4.796875 -5.109375 C 4.796875 -4.117188 5.171875 -3.359375 5.921875 -2.828125 C 6.679688 -2.296875 7.828125 -2.03125 9.359375 -2.03125 Z M 9.3125 -18.515625 C 11.570312 -18.515625 13.363281 -18.007812 14.6875 -17 C 16.019531 -15.988281 16.6875 -14.390625 16.6875 -12.203125 L 16.6875 -2.96875 C 16.6875 -2.394531 16.570312 -1.957031 16.34375 -1.65625 C 16.125 -1.351562 15.796875 -1.070312 15.359375 -0.8125 C 14.734375 -0.445312 13.90625 -0.128906 12.875 0.140625 C 11.851562 0.410156 10.679688 0.546875 9.359375 0.546875 C 6.910156 0.546875 5.015625 0.0664062 3.671875 -0.890625 C 2.335938 -1.859375 1.671875 -3.25 1.671875 -5.0625 C 1.671875 -6.78125 2.226562 -8.070312 3.34375 -8.9375 C 4.46875 -9.8125 6.039062 -10.351562 8.0625 -10.5625 L 13.609375 -11.109375 L 13.609375 -12.203125 C 13.609375 -13.503906 13.21875 -14.453125 12.4375 -15.046875 C 11.65625 -15.640625 10.601562 -15.9375 9.28125 -15.9375 C 8.1875 -15.9375 7.15625 -15.78125 6.1875 -15.46875 C 5.226562 -15.164062 4.375 -14.816406 3.625 -14.421875 C 3.414062 -14.609375 3.226562 -14.816406 3.0625 -15.046875 C 2.894531 -15.285156 2.8125 -15.546875 2.8125 -15.828125 C 2.8125 -16.191406 2.898438 -16.488281 3.078125 -16.71875 C 3.265625 -16.957031 3.550781 -17.179688 3.9375 -17.390625 C 4.632812 -17.753906 5.4375 -18.03125 6.34375 -18.21875 C 7.257812 -18.414062 8.25 -18.515625 9.3125 -18.515625 Z M 9.3125 -18.515625 "/></g></g></g></svg>