<?xml version="1.0" standalone="no"?>
<!DOCTYPE svg PUBLIC "-//W3C//DTD SVG 20010904//EN"
 "http://www.w3.org/TR/2001/REC-SVG-20010904/DTD/svg10.dtd">
<svg version="1.0" xmlns="http://www.w3.org/2000/svg"
 width="500.000000pt" height="500.000000pt" viewBox="0 0 500.000000 500.000000"
 preserveAspectRatio="xMidYMid meet">
<metadata>
Created by potrace 1.14, written by Peter Selinger 2001-2017
</metadata>
<g transform="translate(0.000000,500.000000) scale(0.100000,-0.100000)"
fill="#000000" stroke="none">
<path d="M2600 4819 c141 -10 243 -25 378 -55 857 -190 1546 -875 1736 -1726
74 -333 76 -734 5 -1083 -44 -211 -147 -483 -264 -695 -31 -56 -55 -103 -53
-106 6 -5 95 114 153 204 63 99 166 315 208 438 85 246 117 442 117 719 0 225
-14 344 -64 540 -122 475 -384 898 -751 1213 -409 351 -971 567 -1458 561
l-112 -2 105 -8z"/>
<path d="M498 3708 c-158 -213 -287 -527 -349 -853 -30 -157 -38 -494 -14
-660 106 -766 602 -1447 1300 -1790 298 -146 674 -237 963 -234 l107 2 -100 8
c-593 47 -1107 279 -1506 680 -353 354 -559 765 -646 1284 -28 170 -26 613 4
785 45 259 106 452 214 679 33 68 57 126 55 128 -2 2 -14 -11 -28 -29z"/>
</g>
</svg>
